<svg aria-hidden="true" style="position: absolute; width: 0; height: 0; overflow: hidden;" version="1.1" xmlns="http://www.w3.org/2000/svg" xmlns:xlink="http://www.w3.org/1999/xlink">
  <defs>
    <symbol id="icon-sort-asc" viewBox="0 0 32 32">
      <path d="M10 24v-24h-4v24h-5l7 7 7-7h-5z"></path>
    </symbol>
    <symbol id="icon-sort-active-asc" viewBox="0 0 32 32">
      <path d="M10 24v-24h-4v24h-5l7 7 7-7h-5z"></path>
      <path d="M14 18h18v4h-18v-4z"></path>
      <path d="M14 12h14v4h-14v-4z"></path>
      <path d="M14 6h10v4h-10v-4z"></path>
      <path d="M14 0h6v4h-6v-4z"></path>
    </symbol>
    <symbol id="icon-sort-active-desc" viewBox="0 0 32 32">
      <path d="M10 24v-24h-4v24h-5l7 7 7-7h-5z"></path>
      <path d="M14 0h18v4h-18v-4z"></path>
      <path d="M14 6h14v4h-14v-4z"></path>
      <path d="M14 12h10v4h-10v-4z"></path>
      <path d="M14 18h6v4h-6v-4z"></path>
    </symbol>
    <symbol id="icon-edit-start" viewBox="0 0 20 20">
      <path d="M2 4v14h14v-6l2-2v10h-18v-18h10l-2 2h-6zM12.3 3.7l4 4-8.3 8.3h-4v-4l8.3-8.3zM13.7 2.3l2.3-2.3 4 4-2.3 2.3-4-4z"></path>
    </symbol>
    <symbol id="icon-edit-save" viewBox="0 0 20 20">
      <path d="M0 2c0-1.1 0.9-2 2-2h14l4 4v14c0 1.105-0.895 2-2 2v0h-16c-1.105 0-2-0.895-2-2v0-16zM5 2v6h10v-6h-10zM11 3h3v4h-3v-4z"></path>
    </symbol>
    <symbol id="icon-edit-cancel" viewBox="0 0 20 20">
      <path d="M2.93 17.070c-1.884-1.821-3.053-4.37-3.053-7.193 0-5.523 4.477-10 10-10 2.823 0 5.372 1.169 7.19 3.050l0.003 0.003c1.737 1.796 2.807 4.247 2.807 6.947 0 5.523-4.477 10-10 10-2.7 0-5.151-1.070-6.95-2.81l0.003 0.003zM4.34 15.66c1.449 1.449 3.45 2.344 5.66 2.344 4.421 0 8.004-3.584 8.004-8.004 0-2.21-0.896-4.211-2.344-5.66v0c-1.449-1.449-3.45-2.344-5.66-2.344-4.421 0-8.004 3.584-8.004 8.004 0 2.21 0.896 4.211 2.344 5.66v0zM14.24 7.17l-2.83 2.83 2.83 2.83-1.41 1.41-2.83-2.83-2.83 2.83-1.41-1.41 2.83-2.83-2.83-2.83 1.41-1.41 2.83 2.83 2.83-2.83 1.41 1.41z"></path>
    </symbol>
    <symbol id="icon-add" viewBox="0 0 32 32">
      <path d="M31 12h-11v-11c0-0.552-0.448-1-1-1h-6c-0.552 0-1 0.448-1 1v11h-11c-0.552 0-1 0.448-1 1v6c0 0.552 0.448 1 1 1h11v11c0 0.552 0.448 1 1 1h6c0.552 0 1-0.448 1-1v-11h11c0.552 0 1-0.448 1-1v-6c0-0.552-0.448-1-1-1z"></path>
    </symbol>
    <symbol id="icon-delete" viewBox="0 0 20 20">
      <path d="M6 2l2-2h4l2 2h4v2h-16v-2h4zM3 6h14l-1 14h-12l-1-14zM8 8v10h1v-10h-1zM11 8v10h1v-10h-1z"></path>
    </symbol>
    <symbol id="icon-search" viewBox="0 0 20 20">
      <path d="M12.9 14.32c-1.34 1.049-3.050 1.682-4.908 1.682-4.418 0-8-3.582-8-8s3.582-8 8-8c4.418 0 8 3.582 8 8 0 1.858-0.633 3.567-1.695 4.925l0.013-0.018 5.35 5.33-1.42 1.42-5.33-5.34zM8 14c3.314 0 6-2.686 6-6s-2.686-6-6-6v0c-3.314 0-6 2.686-6 6s2.686 6 6 6v0z"></path>
    </symbol>
    <symbol id="icon-dots-menu" viewBox="0 0 20 20">
      <path d="M10 12c-1.105 0-2-0.895-2-2s0.895-2 2-2v0c1.105 0 2 0.895 2 2s-0.895 2-2 2v0zM10 6c-1.105 0-2-0.895-2-2s0.895-2 2-2v0c1.105 0 2 0.895 2 2s-0.895 2-2 2v0zM10 18c-1.105 0-2-0.895-2-2s0.895-2 2-2v0c1.105 0 2 0.895 2 2s-0.895 2-2 2v0z"></path>
    </symbol>
    <symbol id="icon-import" viewBox="0 0 32 32">
      <path d="M28 16h-5l-7 7-7-7h-5l-4 8v2h32v-2l-4-8zM0 28h32v2h-32v-2zM18 10v-8h-4v8h-7l9 9 9-9h-7z"></path>
    </symbol>
    <symbol id="icon-export" viewBox="0 0 32 32">
      <path d="M0 28h32v2h-32zM32 24v2h-32v-2l4-8h8v4h8v-4h8zM7 10l9-9 9 9h-7v8h-4v-8z"></path>
    </symbol>
    <symbol id="icon-folder" viewBox="0 0 20 20">
      <path d="M0 4c0-1.1 0.9-2 2-2h7l2 2h7c1.105 0 2 0.895 2 2v0 10c0 1.105-0.895 2-2 2v0h-16c-1.105 0-2-0.895-2-2v0-12z"></path>
    </symbol>
    <symbol id="icon-image" viewBox="0 0 32 32">
      <path d="M29.996 4c0.001 0.001 0.003 0.002 0.004 0.004v23.993c-0.001 0.001-0.002 0.003-0.004 0.004h-27.993c-0.001-0.001-0.003-0.002-0.004-0.004v-23.993c0.001-0.001 0.002-0.003 0.004-0.004h27.993zM30 2h-28c-1.1 0-2 0.9-2 2v24c0 1.1 0.9 2 2 2h28c1.1 0 2-0.9 2-2v-24c0-1.1-0.9-2-2-2v0z"></path>
      <path d="M26 9c0 1.657-1.343 3-3 3s-3-1.343-3-3 1.343-3 3-3 3 1.343 3 3z"></path>
      <path d="M28 26h-24v-4l7-12 8 10h2l7-6z"></path>
    </symbol>
    <symbol id="icon-close" viewBox="0 0 20 20">
      <path d="M10 8.586l-7.071-7.071-1.414 1.414 7.071 7.071-7.071 7.071 1.414 1.414 7.071-7.071 7.071 7.071 1.414-1.414-7.071-7.071 7.071-7.071-1.414-1.414-7.071 7.071z"></path>
    </symbol>
  </defs>
</svg>
